<?xml version="1.0"?>
<svg xmlns="http://www.w3.org/2000/svg" xmlns:xlink="http://www.w3.org/1999/xlink" version="1.1" id="Capa_1" x="0px" y="0px" viewBox="0 0 512.373 512.373" style="enable-background:new 0 0 512.373 512.373;" xml:space="preserve" width="512px" height="512px" class=""><g><g>
	<g>
		<path d="M336.186,224.373c-4.672,0-8.064,1.92-10.048,3.552c-3.808,3.04-5.952,7.584-5.952,12.448c0,8.832,7.2,16,16,16    s16-7.168,16-16C352.186,231.541,344.986,224.373,336.186,224.373z" data-original="#000000" class="active-path" data-old_color="#000000" fill="#FFEB59"/>
	</g>
</g><g>
	<g>
		<path d="M186.234,227.925l-0.032-0.032c-1.984-1.6-5.344-3.52-10.016-3.52c-8.832,0-16,7.168-16,16c0,8.832,7.168,16,16,16    c8.832,0,16-7.168,16-16C192.186,235.509,190.01,230.997,186.234,227.925z" data-original="#000000" class="active-path" data-old_color="#000000" fill="#FFEB59"/>
	</g>
</g><g>
	<g>
		<path d="M481.882,136.117c31.008-69.248,2.176-124.832,0.896-127.264c-3.456-6.464-10.688-10.176-18.016-8.416    c-7.136,1.792-12.096,7.776-12.096,15.136c0,0.16-2.144,17.12-32.96,44.32c-45.728-38.496-103.264-59.52-163.52-59.52    c-60.224,0-117.76,21.056-163.52,59.52c-30.336-26.784-32.896-43.52-32.96-43.52c0-7.328-4.992-13.76-12.128-15.52    c-7.168-1.76-14.528,1.536-18.016,8c-1.28,2.4-30.08,58.016,0.928,127.264C10.65,173.045,0.186,214.453,0.186,256.373    c0,141.152,114.848,256,256,256s256-114.848,256-256C512.186,214.453,501.722,173.045,481.882,136.117z M118.138,172.821    c-6.88-5.568-7.968-15.648-2.4-22.496c5.536-6.848,15.648-7.936,22.496-2.4l68.096,55.104    c11.36,9.184,17.856,22.784,17.856,37.344c0,26.464-21.536,48-48,48s-48-21.536-48-48c0-17.28,9.28-32.352,23.008-40.8    L118.138,172.821z M369.306,369.493c-30.208,30.208-70.368,46.88-113.12,46.88s-82.912-16.672-113.152-46.88    c-6.24-6.24-6.24-16.384,0-22.624c6.24-6.24,16.384-6.24,22.624,0c48.352,48.384,132.64,48.384,181.024,0    c6.24-6.24,16.384-6.24,22.624,0S375.546,363.253,369.306,369.493z M394.234,172.821l-33.088,26.752    c13.76,8.448,23.04,23.52,23.04,40.8c0,26.464-21.536,48-48,48s-48-21.536-48-48c0-14.592,6.496-28.192,17.824-37.344    l68.128-55.104c6.88-5.568,16.96-4.512,22.496,2.368S401.114,167.253,394.234,172.821z" data-original="#000000" class="active-path" data-old_color="#000000" fill="#FFEB59"/>
	</g>
</g></g> </svg>
